<?xml version="1.0" encoding="UTF-8" standalone="no"?>
<!-- Created with Inkscape (http://www.inkscape.org/) -->

<svg
   width="265.97656mm"
   height="48.382858mm"
   viewBox="0 0 265.97657 48.382858"
   version="1.1"
   id="svg1"
   inkscape:version="1.4.3 (0d15f75, 2025-12-25)"
   sodipodi:docname="16semitones-white.svg"
   xmlns:inkscape="http://www.inkscape.org/namespaces/inkscape"
   xmlns:sodipodi="http://sodipodi.sourceforge.net/DTD/sodipodi-0.dtd"
   xmlns="http://www.w3.org/2000/svg"
   xmlns:svg="http://www.w3.org/2000/svg">
  <sodipodi:namedview
     id="namedview1"
     pagecolor="#ffffff"
     bordercolor="#000000"
     borderopacity="0.25"
     inkscape:showpageshadow="2"
     inkscape:pageopacity="0.0"
     inkscape:pagecheckerboard="0"
     inkscape:deskcolor="#d1d1d1"
     inkscape:document-units="mm"
     inkscape:clip-to-page="false"
     inkscape:zoom="1.6142256"
     inkscape:cx="625.37727"
     inkscape:cy="512.93946"
     inkscape:window-width="3840"
     inkscape:window-height="2054"
     inkscape:window-x="-11"
     inkscape:window-y="-11"
     inkscape:window-maximized="1"
     inkscape:current-layer="g3" />
  <defs
     id="defs1" />
  <g
     inkscape:label="Layer 1"
     inkscape:groupmode="layer"
     id="layer1"
     transform="translate(-16.095703,-12.708984)"
     style="display:inline">
    <g
       id="text1"
       style="opacity:1;fill:#000000;fill-opacity:1">
      <path
         style="font-weight:bold;font-size:50.8px;font-family:Outfit;-inkscape-font-specification:'Outfit, Bold';letter-spacing:-3.175px;baseline-shift:baseline;display:inline;overflow:visible;vector-effect:none;stroke-linecap:square;paint-order:markers fill stroke;enable-background:accumulate;stop-color:#000000;stop-opacity:1;fill:#000000;fill-opacity:1"
         d="M 28.577117,54.908939 V 19.04414 h 7.9248 v 35.864799 z m -6.9088,-29.108399 v -6.7564 h 14.3256 v 6.7564 z m 29.591014,29.667199 q -3.7592,0 -6.8072,-1.6764 -2.9972,-1.6764 -4.7752,-4.4704 -1.7272,-2.8448 -1.7272,-6.349999 0,-4.572 3.2004,-9.2456 l 10.1092,-14.6812 h 8.9916 l -11.2268,15.6464 -2.9972,0.254 q 0.7112,-1.2192 1.4732,-2.0828 0.8128,-0.9144 2.032,-1.3716 1.2192,-0.508 3.0988,-0.508 3.3528,0 5.9944,1.5748 2.6924,1.524 4.318,4.2164 1.6256,2.6416 1.6256,6.096 0,3.505199 -1.778,6.400799 -1.778,2.8448 -4.7752,4.5212 -2.9972,1.6764 -6.7564,1.6764 z m 0,-6.9596 q 1.5748,0 2.8448,-0.762 1.27,-0.762 1.9812,-2.082799 0.7112,-1.3208 0.7112,-2.9464 0,-1.6764 -0.7112,-2.9464 -0.7112,-1.3208 -1.9812,-2.032 -1.27,-0.762 -2.8448,-0.762 -1.6256,0 -2.8956,0.762 -1.2192,0.7112 -1.9304,2.032 -0.7112,1.27 -0.7112,2.9464 0,1.6256 0.7112,2.9464 0.7112,1.320799 1.9304,2.082799 1.27,0.762 2.8956,0.762 z m 23.108598,7.0104 q -2.1844,0 -4.318,-0.5588 -2.0828,-0.5588 -3.9116,-1.5748 -1.778,-1.0668 -3.048,-2.4384 l 4.4196,-4.4704 q 1.2192,1.3208 2.8956,2.0828 1.6764,0.7112 3.6576,0.7112 1.3716,0 2.0828,-0.4064 0.762,-0.4064 0.762,-1.1176 0,-0.9144 -0.9144,-1.3716 -0.8636,-0.508 -2.2352,-0.863599 -1.3716,-0.4064 -2.8956,-0.8636 -1.524,-0.4572 -2.8956,-1.27 -1.3716,-0.8128 -2.2352,-2.2352 -0.8636,-1.4732 -0.8636,-3.7084 0,-2.3876 1.2192,-4.1148 1.2192,-1.778 3.4544,-2.794 2.2352,-1.016 5.2324,-1.016 3.1496,0 5.7912,1.1176 2.6924,1.0668 4.3688,3.2004 l -4.4196,4.4704 q -1.1684,-1.3716 -2.6416,-1.9304 -1.4224,-0.5588 -2.794,-0.5588 -1.3208,0 -1.9812,0.4064 -0.6604,0.3556 -0.6604,1.0668 0,0.762 0.8636,1.2192 0.8636,0.4572 2.2352,0.8128 1.3716,0.3556 2.8956,0.8636 1.524,0.508 2.8956,1.3716 1.3716,0.8636 2.2352,2.3368 0.8636,1.4224 0.8636,3.759199 0,3.6068 -2.7432,5.7404 -2.6924,2.1336 -7.3152,2.1336 z m 23.591807,-0.0508 q -4.0132,0 -7.1628,-1.6256 -3.0988,-1.6764 -4.8768,-4.6228 -1.778,-2.9464 -1.778,-6.654799 0,-3.7084 1.7272,-6.604 1.778,-2.9464 4.7752,-4.6228 2.9972,-1.6764 6.7564,-1.6764 3.657604,0 6.451604,1.5748 2.794,1.5748 4.3688,4.3688 1.6256,2.794 1.6256,6.4008 0,0.6604 -0.1016,1.4224 -0.0508,0.7112 -0.254,1.6764 l -21.285204,0.0508 v -5.334 l 17.983204,-0.0508 -3.3528,2.2352 q -0.0508,-2.1336 -0.6604,-3.5052 -0.6096,-1.4224 -1.8288,-2.1336 -1.168404,-0.762 -2.895604,-0.762 -1.8288,0 -3.2004,0.8636 -1.3208,0.8128 -2.0828,2.3368 -0.7112,1.524 -0.7112,3.7084 0,2.1844 0.762,3.759199 0.8128,1.524 2.2352,2.3876 1.4732,0.8128 3.4544,0.8128 1.8288,0 3.302004,-0.6096 1.4732,-0.6604 2.5908,-1.9304 l 4.2672,4.2672 q -1.8288,2.1336 -4.4196,3.2004 -2.5908,1.0668 -5.689604,1.0668 z m 12.151414,-0.5588 V 30.22014 h 7.7724 v 24.688799 z m 15.7988,0 V 40.48174 q 0,-1.8796 -1.1684,-2.8956 -1.1176,-1.0668 -2.794,-1.0668 -1.1684,0 -2.0828,0.508 -0.9144,0.4572 -1.4732,1.3208 -0.508,0.8636 -0.508,2.1336 l -2.9972,-1.3208 q 0,-2.9464 1.27,-5.0292 1.27,-2.1336 3.4544,-3.2512 2.1844,-1.1684 4.9276,-1.1684 2.5908,0 4.6228,1.1684 2.0828,1.1684 3.302,3.2512 1.2192,2.0828 1.2192,4.9784 v 15.798799 z m 15.7988,0 V 40.48174 q 0,-1.8796 -1.1684,-2.8956 -1.1176,-1.0668 -2.794,-1.0668 -1.1684,0 -2.0828,0.508 -0.9144,0.4572 -1.4732,1.3208 -0.508,0.8636 -0.508,2.1336 l -4.4704,-0.6096 q 0.1016,-3.1496 1.4732,-5.3848 1.4224,-2.286 3.7084,-3.5052 2.3368,-1.27 5.2324,-1.27 2.8448,0 5.0292,1.2192 2.2352,1.1684 3.5052,3.4036 1.3208,2.1844 1.3208,5.2832 v 15.290799 z m 8.69576,0 V 30.22014 h 7.7724 v 24.688799 z m 3.9116,-28.092399 q -1.8288,0 -3.048,-1.2192 -1.1684,-1.27 -1.1684,-3.048 0,-1.8288 1.1684,-3.048 1.2192,-1.2192 3.048,-1.2192 1.8288,0 2.9972,1.2192 1.1684,1.2192 1.1684,3.048 0,1.778 -1.1684,3.048 -1.1684,1.2192 -2.9972,1.2192 z M 164.8735,54.908939 V 20.00934 h 7.7724 v 34.899599 z m -5.588,-18.084799 v -6.604 h 18.9484 v 6.604 z m 31.3442,18.643599 q -3.81,0 -6.9088,-1.6764 -3.048,-1.7272 -4.826,-4.6736 -1.778,-2.9464 -1.778,-6.603999 0,-3.6576 1.778,-6.5532 1.778,-2.8956 4.826,-4.572 3.048,-1.7272 6.9088,-1.7272 3.8608,0 6.9088,1.6764 3.048,1.6764 4.826,4.6228 1.778,2.8956 1.778,6.5532 0,3.657599 -1.778,6.603999 -1.778,2.9464 -4.826,4.6736 -3.048,1.6764 -6.9088,1.6764 z m 0,-7.0612 q 1.6764,0 2.9464,-0.7112 1.27,-0.762 1.9304,-2.082799 0.7112,-1.3716 0.7112,-3.0988 0,-1.7272 -0.7112,-2.9972 -0.7112,-1.3208 -1.9812,-2.032 -1.2192,-0.762 -2.8956,-0.762 -1.6256,0 -2.8956,0.762 -1.27,0.7112 -1.9812,2.032 -0.7112,1.3208 -0.7112,3.048 0,1.6764 0.7112,3.048 0.7112,1.320799 1.9812,2.082799 1.27,0.7112 2.8956,0.7112 z m 30.22542,6.5024 V 40.83734 q 0,-1.9304 -1.2192,-3.0988 -1.1684,-1.2192 -2.9972,-1.2192 -1.27,0 -2.2352,0.5588 -0.9652,0.508 -1.524,1.524 -0.5588,0.9652 -0.5588,2.2352 l -2.9972,-1.4732 q 0,-2.8956 1.27,-5.08 1.27,-2.1844 3.5052,-3.3528 2.286,-1.2192 5.1308,-1.2192 2.7432,0 4.826,1.3208 2.1336,1.27 3.3528,3.4036 1.2192,2.1336 1.2192,4.6736 v 15.798799 z m -16.3068,0 V 30.22014 h 7.7724 v 24.688799 z m 38.07461,0.5588 q -4.0132,0 -7.1628,-1.6256 -3.0988,-1.6764 -4.8768,-4.6228 -1.778,-2.9464 -1.778,-6.654799 0,-3.7084 1.7272,-6.604 1.778,-2.9464 4.7752,-4.6228 2.9972,-1.6764 6.7564,-1.6764 3.6576,0 6.4516,1.5748 2.794,1.5748 4.3688,4.3688 1.6256,2.794 1.6256,6.4008 0,0.6604 -0.1016,1.4224 -0.0508,0.7112 -0.254,1.6764 l -21.2852,0.0508 v -5.334 l 17.9832,-0.0508 -3.3528,2.2352 q -0.0508,-2.1336 -0.6604,-3.5052 -0.6096,-1.4224 -1.8288,-2.1336 -1.1684,-0.762 -2.8956,-0.762 -1.8288,0 -3.2004,0.8636 -1.3208,0.8128 -2.0828,2.3368 -0.7112,1.524 -0.7112,3.7084 0,2.1844 0.762,3.759199 0.8128,1.524 2.2352,2.3876 1.4732,0.8128 3.4544,0.8128 1.8288,0 3.302,-0.6096 1.4732,-0.6604 2.5908,-1.9304 l 4.2672,4.2672 q -1.8288,2.1336 -4.4196,3.2004 -2.5908,1.0668 -5.6896,1.0668 z m 21.46302,0.0508 q -2.1844,0 -4.318,-0.5588 -2.0828,-0.5588 -3.9116,-1.5748 -1.778,-1.0668 -3.048,-2.4384 l 4.4196,-4.4704 q 1.2192,1.3208 2.8956,2.0828 1.6764,0.7112 3.6576,0.7112 1.3716,0 2.0828,-0.4064 0.762,-0.4064 0.762,-1.1176 0,-0.9144 -0.9144,-1.3716 -0.8636,-0.508 -2.2352,-0.863599 -1.3716,-0.4064 -2.8956,-0.8636 -1.524,-0.4572 -2.8956,-1.27 -1.3716,-0.8128 -2.2352,-2.2352 -0.8636,-1.4732 -0.8636,-3.7084 0,-2.3876 1.2192,-4.1148 1.2192,-1.778 3.4544,-2.794 2.2352,-1.016 5.2324,-1.016 3.1496,0 5.7912,1.1176 2.6924,1.0668 4.3688,3.2004 l -4.4196,4.4704 q -1.1684,-1.3716 -2.6416,-1.9304 -1.4224,-0.5588 -2.794,-0.5588 -1.3208,0 -1.9812,0.4064 -0.6604,0.3556 -0.6604,1.0668 0,0.762 0.8636,1.2192 0.8636,0.4572 2.2352,0.8128 1.3716,0.3556 2.8956,0.8636 1.524,0.508 2.8956,1.3716 1.3716,0.8636 2.2352,2.3368 0.8636,1.4224 0.8636,3.759199 0,3.6068 -2.7432,5.7404 -2.6924,2.1336 -7.3152,2.1336 z"
         id="path4" />
      <path
         style="font-weight:bold;font-size:50.8px;font-family:Outfit;-inkscape-font-specification:'Outfit, Bold';letter-spacing:-3.175px;baseline-shift:baseline;display:inline;overflow:visible;vector-effect:none;fill:#000000;stroke-linecap:square;paint-order:markers fill stroke;enable-background:accumulate;stop-color:#000000;stop-opacity:1;fill-opacity:1"
         d="m 154.31641,12.708984 c -2.45765,0 -5.19031,1.053586 -6.98829,2.851563 l -0.043,0.04297 -0.041,0.04101 c -1.74206,1.8178 -2.7168,4.498255 -2.7168,6.904297 0,0.693496 0.24635,1.39398 0.40235,2.097656 h -0.0977 v 0.431641 c -1.68402,-0.560916 -3.4269,-0.939453 -5.20703,-0.939453 -2.68688,0 -5.36134,0.6325 -7.73047,1.884765 l 0.0449,0.02539 c -0.008,-0.0045 -0.0175,-0.0052 -0.0254,-0.0098 -0.007,-0.0041 -0.0123,-0.01154 -0.0195,-0.01563 -0.003,0.0016 -0.007,0.0023 -0.01,0.0039 -2.23018,-1.26921 -4.80027,-1.888672 -7.34571,-1.888672 -1.36382,0 -2.72346,0.179931 -4.04492,0.507812 h -15.95508 v 0.931641 c -2.25848,-0.907158 -4.651951,-1.490234 -7.138669,-1.490234 -3.334553,0 -6.612084,0.784552 -9.476563,2.386718 -0.548478,0.306777 -0.990985,0.758985 -1.503906,1.119141 -1.152524,-0.864031 -2.410196,-1.583411 -3.748047,-2.119141 -2.475929,-1.036916 -5.162446,-1.539062 -7.898438,-1.539062 -2.62785,0 -5.192709,0.449989 -7.537109,1.515625 -1.686502,0.766592 -3.16421,1.950604 -4.449219,3.322265 -0.464763,-0.331098 -0.867058,-0.743909 -1.363281,-1.027343 -0.134112,-0.07926 -0.293418,-0.102551 -0.429687,-0.177735 L 71.109375,13.470703 H 48.330078 l -6.255859,9.085938 v -9.085938 h -0.507813 -18.5625 -6.908203 v 17.902344 h 6.908203 v 29.109375 h 19.070313 v -1.689453 c 2.808285,1.478314 5.963339,2.248047 9.185547,2.248047 3.334552,0 6.612083,-0.784553 9.476562,-2.386719 0.596853,-0.333833 1.086856,-0.812653 1.642578,-1.207031 0.318648,0.215585 0.560933,0.517809 0.892578,0.716796 l 0.08008,0.04687 0.08008,0.04492 c 1.625173,0.902874 3.363126,1.60014 5.173828,2.085938 l 0.01563,0.0059 0.01758,0.0039 c 1.873332,0.490635 3.797032,0.740235 5.728515,0.740235 3.93044,0 7.747197,-0.951226 10.75586,-3.326172 0.260045,-0.203188 0.460771,-0.475382 0.703125,-0.701172 0.76113,0.578965 1.473644,1.222711 2.318359,1.679688 l 0.04883,0.02539 0.04687,0.02539 c 2.95699,1.526188 6.290811,2.246094 9.71875,2.246094 2.267839,0 4.473679,-0.420141 6.580079,-1.123047 v 0.564453 h 15.79883 3.11914 12.67969 3.11914 5.57617 10.22266 4.24609 4.44922 14.46875 v -3.904297 c 0.88065,0.737216 1.7496,1.493391 2.75391,2.0625 l 0.0488,0.02539 0.0469,0.02734 c 2.90659,1.57242 6.20317,2.347657 9.56055,2.347657 2.9231,0 5.74553,-0.696852 8.3457,-1.884766 v 1.326172 h 16.30664 2.61328 16.30664 v -1.21875 c 2.6329,1.124076 5.46845,1.777344 8.42188,1.777344 2.70539,0 5.35999,-0.477279 7.81054,-1.486329 0.89545,-0.368714 1.70975,-0.898698 2.5293,-1.412109 0.01,0.0058 0.0158,0.0157 0.0254,0.02148 l 0.0801,0.04687 0.082,0.04492 c 1.62517,0.902874 3.36313,1.60014 5.17383,2.085938 l 0.0156,0.0059 0.0156,0.0039 c 1.87333,0.490635 3.79898,0.740235 5.73047,0.740235 3.928,0 7.7422,-0.950559 10.75,-3.322266 3.02111,-2.358156 4.88086,-6.313983 4.88086,-10.125 0,-2.231594 -0.39519,-4.519497 -1.65625,-6.615234 -0.32578,-0.551066 -0.75486,-1.041506 -1.16602,-1.542969 L 282.07227,34.25 279.03516,30.384766 c -1.72239,-2.192133 -4.06029,-3.876194 -6.64844,-4.91211 -2.47483,-1.035781 -5.16001,-1.537109 -7.89453,-1.537109 -2.62785,0 -5.19467,0.449989 -7.53907,1.515625 -1.34099,0.609542 -2.55406,1.481462 -3.66406,2.478515 -0.67323,-0.527557 -1.2908,-1.128182 -2.03711,-1.548828 -2.76885,-1.560627 -5.94927,-2.292968 -9.1875,-2.292968 -3.33455,0 -6.61208,0.784552 -9.47656,2.386718 -1.00872,0.564202 -1.88285,1.319422 -2.76562,2.058594 -0.85792,-0.85592 -1.81514,-1.612442 -2.84961,-2.236328 -2.30986,-1.446151 -5.04365,-2.158203 -7.74219,-2.158203 -1.38906,0 -2.77305,0.176952 -4.11719,0.507812 h -16.13867 v 1.326172 c -2.60017,-1.187914 -5.4226,-1.884765 -8.3457,-1.884765 -2.36575,0 -4.64123,0.536579 -6.82227,1.326171 v -0.767578 h -5.58789 V 14.435547 h -18.69922 c -1.61264,-1.009237 -3.43135,-1.726563 -5.20312,-1.726563 z m 0,8.535157 c 0.0192,0 0.7202,0.239732 0.89257,0.412109 l 0.16016,0.167969 c 0.0984,0.106996 0.30274,0.68919 0.30273,0.724609 0,-0.03236 -0.19666,0.616394 -0.38085,0.808594 l -0.082,0.08398 c -0.17237,0.172377 -0.87333,0.414063 -0.89257,0.414063 -0.0192,0 -0.80128,-0.262152 -1.02735,-0.498047 -0.18419,-0.1922 -0.38086,-0.840951 -0.38086,-0.808594 0,-0.03542 0.20625,-0.617613 0.30469,-0.724609 l 0.0762,-0.08203 c 0.22607,-0.235895 1.0081,-0.498046 1.02735,-0.498046 z m -37.24414,4.675781 c -0.0142,0.0072 -0.0249,0.02005 -0.0391,0.02734 -0.0161,0.0085 -0.0347,0.01093 -0.0508,0.01953 z m 94.44531,0.07227 c -0.006,0.0033 -0.0114,0.0084 -0.0176,0.01172 -0.007,0.004 -0.0159,0.0058 -0.0234,0.0098 z m -79.7461,0.07227 c -0.007,0.0037 -0.0125,0.0099 -0.0195,0.01367 -0.006,0.0034 -0.0133,0.0045 -0.0195,0.0078 z m -84.195308,0.207031 c -0.03111,0.01167 -0.05879,0.03489 -0.08984,0.04687 -0.03261,0.01323 -0.06504,0.01375 -0.09766,0.02734 z m 133.458988,0.234375 c -0.009,0.005 -0.0163,0.01257 -0.0254,0.01758 -0.0117,0.0066 -0.0254,0.009 -0.0371,0.01563 z m -119.500004,3.59961 c -0.0071,0.01007 -0.0085,0.02311 -0.01563,0.0332 -0.0077,0.01109 -0.01972,0.01818 -0.02734,0.0293 z m 189.716794,0 c -0.007,0.01007 -0.009,0.02311 -0.0156,0.0332 -0.008,0.01109 -0.0197,0.01818 -0.0274,0.0293 z M 70.455078,31.308594 c -0.02858,0.01539 -0.04956,0.06378 -0.07813,0.08008 -0.07024,0.04066 -0.128232,0.03639 -0.199219,0.08008 z m 189.718752,0 c -0.0282,0.0152 -0.0499,0.06204 -0.0781,0.07813 -0.071,0.04108 -0.12939,0.03786 -0.20117,0.08203 z m -157.01758,0.24414 0.23633,0.146485 c -0.041,-0.02672 -0.0896,-0.03064 -0.13086,-0.05664 -0.0396,-0.02394 -0.0655,-0.06655 -0.10547,-0.08984 z m 144.66211,0 0.23633,0.146485 c -0.041,-0.02672 -0.0896,-0.03064 -0.13086,-0.05664 -0.0396,-0.02393 -0.0656,-0.06656 -0.10547,-0.08984 z M 91.330078,31.722656 c -0.0075,0.0046 -0.01205,0.01294 -0.01953,0.01758 -0.009,0.0056 -0.02032,0.0061 -0.0293,0.01172 z m 144.664062,0 c -0.007,0.0046 -0.012,0.01295 -0.0195,0.01758 -0.009,0.0056 -0.0203,0.0061 -0.0293,0.01172 z m -50.98242,0.898438 c -0.0242,0.01353 -0.0423,0.03704 -0.0664,0.05078 -0.0245,0.01443 -0.0537,0.01856 -0.0781,0.0332 z m 11.23633,0 0.23047,0.136718 c -0.0372,-0.02326 -0.0817,-0.02806 -0.11915,-0.05078 -0.0404,-0.02337 -0.0707,-0.06318 -0.11132,-0.08594 z m 61.45312,0.18164 0.0391,0.06641 c -0.007,-0.01219 -0.0185,-0.02103 -0.0254,-0.0332 -0.006,-0.01041 -0.008,-0.02281 -0.0137,-0.0332 z m -113.5039,0.578125 0.1914,0.173828 c -0.0346,-0.03301 -0.0878,-0.04374 -0.12305,-0.07617 -0.0299,-0.02689 -0.038,-0.07125 -0.0684,-0.09766 z m 79.29492,0.333985 0.16797,0.167968 c -0.0279,-0.02913 -0.0732,-0.03962 -0.10157,-0.06836 -0.0284,-0.02809 -0.0376,-0.07196 -0.0664,-0.09961 z m -155.802737,0.138672 0.02539,0.03906 c -0.0053,-0.0087 -0.01424,-0.0147 -0.01953,-0.02344 -0.0029,-0.0048 -0.0029,-0.01086 -0.0059,-0.01563 z m 122.882817,8.357421 0.0195,0.01172 c -0.003,0.0026 -0.005,0.003 -0.008,0.0059 -0.0302,-0.01206 0.0218,0.0034 -0.0117,-0.01758 z m 0.0723,0.08789 c -0.0113,-0.03629 0,-0.08887 0,0.214844 0,0.08205 -0.0136,0.05598 -0.0176,0.113281 -0.001,-0.03441 -0.0117,-0.01974 -0.0117,-0.0625 0,-0.252733 0.0159,-0.229424 0.0293,-0.265625 z M 78.910156,53.703125 78.767578,53.78125 c 0.01381,-0.0074 0.02717,-0.03147 0.04102,-0.03906 0.03598,-0.01993 0.06539,-0.01839 0.101562,-0.03906 z m 189.718754,0 -0.14258,0.07813 c 0.0138,-0.0074 0.0272,-0.03147 0.041,-0.03906 0.036,-0.01993 0.0654,-0.01839 0.10157,-0.03906 z"
         id="path5" />
    </g>
  </g>
  <g
     inkscape:label="Layer 1"
     inkscape:groupmode="layer"
     id="g3"
     transform="translate(-16.095703,-12.708984)"
     style="display:inline">
    <path
       d="M 28.577117,54.908939 V 19.04414 h 7.9248 v 35.864799 z m -6.9088,-29.108399 v -6.7564 h 14.3256 v 6.7564 z m 29.591014,29.667199 q -3.7592,0 -6.8072,-1.6764 -2.9972,-1.6764 -4.7752,-4.4704 -1.7272,-2.8448 -1.7272,-6.349999 0,-4.572 3.2004,-9.2456 l 10.1092,-14.6812 h 8.9916 l -11.2268,15.6464 -2.9972,0.254 q 0.7112,-1.2192 1.4732,-2.0828 0.8128,-0.9144 2.032,-1.3716 1.2192,-0.508 3.0988,-0.508 3.3528,0 5.9944,1.5748 2.6924,1.524 4.318,4.2164 1.6256,2.6416 1.6256,6.096 0,3.505199 -1.778,6.400799 -1.778,2.8448 -4.7752,4.5212 -2.9972,1.6764 -6.7564,1.6764 z m 0,-6.9596 q 1.5748,0 2.8448,-0.762 1.27,-0.762 1.9812,-2.082799 0.7112,-1.3208 0.7112,-2.9464 0,-1.6764 -0.7112,-2.9464 -0.7112,-1.3208 -1.9812,-2.032 -1.27,-0.762 -2.8448,-0.762 -1.6256,0 -2.8956,0.762 -1.2192,0.7112 -1.9304,2.032 -0.7112,1.27 -0.7112,2.9464 0,1.6256 0.7112,2.9464 0.7112,1.320799 1.9304,2.082799 1.27,0.762 2.8956,0.762 z m 23.108598,7.0104 q -2.1844,0 -4.318,-0.5588 -2.0828,-0.5588 -3.9116,-1.5748 -1.778,-1.0668 -3.048,-2.4384 l 4.4196,-4.4704 q 1.2192,1.3208 2.8956,2.0828 1.6764,0.7112 3.6576,0.7112 1.3716,0 2.0828,-0.4064 0.762,-0.4064 0.762,-1.1176 0,-0.9144 -0.9144,-1.3716 -0.8636,-0.508 -2.2352,-0.863599 -1.3716,-0.4064 -2.8956,-0.8636 -1.524,-0.4572 -2.8956,-1.27 -1.3716,-0.8128 -2.2352,-2.2352 -0.8636,-1.4732 -0.8636,-3.7084 0,-2.3876 1.2192,-4.1148 1.2192,-1.778 3.4544,-2.794 2.2352,-1.016 5.2324,-1.016 3.1496,0 5.7912,1.1176 2.6924,1.0668 4.3688,3.2004 l -4.4196,4.4704 q -1.1684,-1.3716 -2.6416,-1.9304 -1.4224,-0.5588 -2.794,-0.5588 -1.3208,0 -1.9812,0.4064 -0.6604,0.3556 -0.6604,1.0668 0,0.762 0.8636,1.2192 0.8636,0.4572 2.2352,0.8128 1.3716,0.3556 2.8956,0.8636 1.524,0.508 2.8956,1.3716 1.3716,0.8636 2.2352,2.3368 0.8636,1.4224 0.8636,3.759199 0,3.6068 -2.7432,5.7404 -2.6924,2.1336 -7.3152,2.1336 z m 23.591807,-0.0508 q -4.0132,0 -7.1628,-1.6256 -3.0988,-1.6764 -4.8768,-4.6228 -1.778,-2.9464 -1.778,-6.654799 0,-3.7084 1.7272,-6.604 1.778,-2.9464 4.7752,-4.6228 2.9972,-1.6764 6.7564,-1.6764 3.657604,0 6.451604,1.5748 2.794,1.5748 4.3688,4.3688 1.6256,2.794 1.6256,6.4008 0,0.6604 -0.1016,1.4224 -0.0508,0.7112 -0.254,1.6764 l -21.285204,0.0508 v -5.334 l 17.983204,-0.0508 -3.3528,2.2352 q -0.0508,-2.1336 -0.6604,-3.5052 -0.6096,-1.4224 -1.8288,-2.1336 -1.168404,-0.762 -2.895604,-0.762 -1.8288,0 -3.2004,0.8636 -1.3208,0.8128 -2.0828,2.3368 -0.7112,1.524 -0.7112,3.7084 0,2.1844 0.762,3.759199 0.8128,1.524 2.2352,2.3876 1.4732,0.8128 3.4544,0.8128 1.8288,0 3.302004,-0.6096 1.4732,-0.6604 2.5908,-1.9304 l 4.2672,4.2672 q -1.8288,2.1336 -4.4196,3.2004 -2.5908,1.0668 -5.689604,1.0668 z m 12.151414,-0.5588 V 30.22014 h 7.7724 v 24.688799 z m 15.7988,0 V 40.48174 q 0,-1.8796 -1.1684,-2.8956 -1.1176,-1.0668 -2.794,-1.0668 -1.1684,0 -2.0828,0.508 -0.9144,0.4572 -1.4732,1.3208 -0.508,0.8636 -0.508,2.1336 l -2.9972,-1.3208 q 0,-2.9464 1.27,-5.0292 1.27,-2.1336 3.4544,-3.2512 2.1844,-1.1684 4.9276,-1.1684 2.5908,0 4.6228,1.1684 2.0828,1.1684 3.302,3.2512 1.2192,2.0828 1.2192,4.9784 v 15.798799 z m 15.7988,0 V 40.48174 q 0,-1.8796 -1.1684,-2.8956 -1.1176,-1.0668 -2.794,-1.0668 -1.1684,0 -2.0828,0.508 -0.9144,0.4572 -1.4732,1.3208 -0.508,0.8636 -0.508,2.1336 l -4.4704,-0.6096 q 0.1016,-3.1496 1.4732,-5.3848 1.4224,-2.286 3.7084,-3.5052 2.3368,-1.27 5.2324,-1.27 2.8448,0 5.0292,1.2192 2.2352,1.1684 3.5052,3.4036 1.3208,2.1844 1.3208,5.2832 v 15.290799 z m 8.69576,0 V 30.22014 h 7.7724 v 24.688799 z m 3.9116,-28.092399 q -1.8288,0 -3.048,-1.2192 -1.1684,-1.27 -1.1684,-3.048 0,-1.8288 1.1684,-3.048 1.2192,-1.2192 3.048,-1.2192 1.8288,0 2.9972,1.2192 1.1684,1.2192 1.1684,3.048 0,1.778 -1.1684,3.048 -1.1684,1.2192 -2.9972,1.2192 z M 164.8735,54.908939 V 20.00934 h 7.7724 v 34.899599 z m -5.588,-18.084799 v -6.604 h 18.9484 v 6.604 z m 31.3442,18.643599 q -3.81,0 -6.9088,-1.6764 -3.048,-1.7272 -4.826,-4.6736 -1.778,-2.9464 -1.778,-6.603999 0,-3.6576 1.778,-6.5532 1.778,-2.8956 4.826,-4.572 3.048,-1.7272 6.9088,-1.7272 3.8608,0 6.9088,1.6764 3.048,1.6764 4.826,4.6228 1.778,2.8956 1.778,6.5532 0,3.657599 -1.778,6.603999 -1.778,2.9464 -4.826,4.6736 -3.048,1.6764 -6.9088,1.6764 z m 0,-7.0612 q 1.6764,0 2.9464,-0.7112 1.27,-0.762 1.9304,-2.082799 0.7112,-1.3716 0.7112,-3.0988 0,-1.7272 -0.7112,-2.9972 -0.7112,-1.3208 -1.9812,-2.032 -1.2192,-0.762 -2.8956,-0.762 -1.6256,0 -2.8956,0.762 -1.27,0.7112 -1.9812,2.032 -0.7112,1.3208 -0.7112,3.048 0,1.6764 0.7112,3.048 0.7112,1.320799 1.9812,2.082799 1.27,0.7112 2.8956,0.7112 z m 30.22542,6.5024 V 40.83734 q 0,-1.9304 -1.2192,-3.0988 -1.1684,-1.2192 -2.9972,-1.2192 -1.27,0 -2.2352,0.5588 -0.9652,0.508 -1.524,1.524 -0.5588,0.9652 -0.5588,2.2352 l -2.9972,-1.4732 q 0,-2.8956 1.27,-5.08 1.27,-2.1844 3.5052,-3.3528 2.286,-1.2192 5.1308,-1.2192 2.7432,0 4.826,1.3208 2.1336,1.27 3.3528,3.4036 1.2192,2.1336 1.2192,4.6736 v 15.798799 z m -16.3068,0 V 30.22014 h 7.7724 v 24.688799 z m 38.07461,0.5588 q -4.0132,0 -7.1628,-1.6256 -3.0988,-1.6764 -4.8768,-4.6228 -1.778,-2.9464 -1.778,-6.654799 0,-3.7084 1.7272,-6.604 1.778,-2.9464 4.7752,-4.6228 2.9972,-1.6764 6.7564,-1.6764 3.6576,0 6.4516,1.5748 2.794,1.5748 4.3688,4.3688 1.6256,2.794 1.6256,6.4008 0,0.6604 -0.1016,1.4224 -0.0508,0.7112 -0.254,1.6764 l -21.2852,0.0508 v -5.334 l 17.9832,-0.0508 -3.3528,2.2352 q -0.0508,-2.1336 -0.6604,-3.5052 -0.6096,-1.4224 -1.8288,-2.1336 -1.1684,-0.762 -2.8956,-0.762 -1.8288,0 -3.2004,0.8636 -1.3208,0.8128 -2.0828,2.3368 -0.7112,1.524 -0.7112,3.7084 0,2.1844 0.762,3.759199 0.8128,1.524 2.2352,2.3876 1.4732,0.8128 3.4544,0.8128 1.8288,0 3.302,-0.6096 1.4732,-0.6604 2.5908,-1.9304 l 4.2672,4.2672 q -1.8288,2.1336 -4.4196,3.2004 -2.5908,1.0668 -5.6896,1.0668 z m 21.46302,0.0508 q -2.1844,0 -4.318,-0.5588 -2.0828,-0.5588 -3.9116,-1.5748 -1.778,-1.0668 -3.048,-2.4384 l 4.4196,-4.4704 q 1.2192,1.3208 2.8956,2.0828 1.6764,0.7112 3.6576,0.7112 1.3716,0 2.0828,-0.4064 0.762,-0.4064 0.762,-1.1176 0,-0.9144 -0.9144,-1.3716 -0.8636,-0.508 -2.2352,-0.863599 -1.3716,-0.4064 -2.8956,-0.8636 -1.524,-0.4572 -2.8956,-1.27 -1.3716,-0.8128 -2.2352,-2.2352 -0.8636,-1.4732 -0.8636,-3.7084 0,-2.3876 1.2192,-4.1148 1.2192,-1.778 3.4544,-2.794 2.2352,-1.016 5.2324,-1.016 3.1496,0 5.7912,1.1176 2.6924,1.0668 4.3688,3.2004 l -4.4196,4.4704 q -1.1684,-1.3716 -2.6416,-1.9304 -1.4224,-0.5588 -2.794,-0.5588 -1.3208,0 -1.9812,0.4064 -0.6604,0.3556 -0.6604,1.0668 0,0.762 0.8636,1.2192 0.8636,0.4572 2.2352,0.8128 1.3716,0.3556 2.8956,0.8636 1.524,0.508 2.8956,1.3716 1.3716,0.8636 2.2352,2.3368 0.8636,1.4224 0.8636,3.759199 0,3.6068 -2.7432,5.7404 -2.6924,2.1336 -7.3152,2.1336 z"
       id="text3"
       style="font-weight:bold;font-size:50.8px;font-family:Outfit;-inkscape-font-specification:'Outfit, Bold';letter-spacing:-3.175px;fill:#ffffff;stroke-width:2.64583"
       aria-label="16semitones" />
  </g>
</svg>
