<?xml version="1.0" encoding="UTF-8" standalone="no"?>
<!-- Created with Inkscape (http://www.inkscape.org/) -->

<svg
   width="230.43961mm"
   height="150.35355mm"
   viewBox="0 0 230.43961 150.35355"
   version="1.1"
   id="svg1"
   xml:space="preserve"
   xmlns:inkscape="http://www.inkscape.org/namespaces/inkscape"
   xmlns:sodipodi="http://sodipodi.sourceforge.net/DTD/sodipodi-0.dtd"
   xmlns="http://www.w3.org/2000/svg"
   xmlns:svg="http://www.w3.org/2000/svg"><sodipodi:namedview
     id="namedview1"
     pagecolor="#ffffff"
     bordercolor="#000000"
     borderopacity="0.25"
     inkscape:showpageshadow="2"
     inkscape:pageopacity="0.0"
     inkscape:pagecheckerboard="0"
     inkscape:deskcolor="#d1d1d1"
     inkscape:document-units="mm"><inkscape:page
       x="2.7954315e-22"
       y="0"
       width="230.43961"
       height="150.35355"
       id="page2"
       margin="0"
       bleed="0" /></sodipodi:namedview><defs
     id="defs1" /><g
     inkscape:label="Layer 1"
     inkscape:groupmode="layer"
     id="layer1"
     transform="translate(-15.318147,-35.478455)"><path
       d="m 15.649691,56.515413 c -0.26363,-0.0019 -0.330729,12.322347 -0.330729,60.745647 0,64.98269 -0.07234,60.97971 1.147216,63.25557 1.10731,2.06643 3.53955,4.05859 5.9061,4.83743 1.51569,0.49881 3.6208,0.50773 108.437312,0.45837 l 106.89166,-0.0506 1.81953,-0.88057 c 2.11146,-1.02208 4.06522,-2.85453 4.84777,-4.54701 0.30179,-0.6527 0.71104,-1.54419 0.9095,-1.98076 0.53708,-1.18143 0.67671,-116.860872 0.1416,-117.30498 -0.27856,-0.231179 -0.90757,0.114608 -2.84738,1.565796 -1.36932,1.024397 -2.52912,1.975793 -2.57762,2.114083 -0.0485,0.1383 -0.20606,0.251147 -0.34985,0.251147 -0.14379,0 -0.45113,0.190167 -0.68316,0.422197 -0.23203,0.23203 -1.86094,1.503754 -3.61942,2.826184 -1.75849,1.32242 -3.25675,2.4817 -3.32951,2.57607 -0.0728,0.0944 -1.6801,1.34762 -3.57187,2.78536 -1.89177,1.43774 -3.49912,2.682933 -3.57188,2.767273 -0.0728,0.0843 -1.50151,1.215491 -3.175,2.513541 -1.67349,1.29805 -3.10224,2.432823 -3.175,2.521293 -0.0728,0.0885 -1.62056,1.26979 -3.43958,2.62568 -1.81901,1.35589 -3.42636,2.60147 -3.57188,2.76779 -0.14552,0.16632 -1.81239,1.480348 -3.70416,2.919718 -1.89177,1.43937 -3.49912,2.690479 -3.57188,2.780709 -0.0728,0.0902 -1.6801,1.340385 -3.57187,2.778125 -1.89177,1.43773 -3.49912,2.687895 -3.57188,2.778125 -0.0728,0.0902 -1.6801,1.343366 -3.57187,2.784329 -1.89177,1.44095 -3.58471,2.76341 -3.76205,2.93884 -0.17734,0.17544 -1.10007,0.88963 -2.05052,1.5875 -0.95045,0.69787 -1.72806,1.36514 -1.72806,1.48259 0,0.11746 -0.16849,0.21343 -0.37465,0.21343 -0.20615,0 -0.41451,0.0984 -0.46302,0.21859 -0.0485,0.12015 -1.63618,1.39549 -3.52795,2.83393 -1.89177,1.43844 -3.49912,2.68892 -3.57188,2.77916 -0.0728,0.0902 -1.6801,1.34039 -3.57187,2.77813 -1.89177,1.43774 -3.49912,2.68811 -3.57188,2.77864 -0.0728,0.0905 -1.50151,1.22167 -3.175,2.51354 -1.67349,1.29188 -3.08205,2.44304 -3.13056,2.55798 -0.0485,0.11494 -0.25686,0.20878 -0.46302,0.20878 -0.20615,0 -0.37517,0.094 -0.37517,0.20877 0,0.11475 -1.42875,1.27087 -3.175,2.56935 -1.74625,1.29848 -3.175,2.45512 -3.175,2.56987 0,0.11474 -0.1685,0.20826 -0.37465,0.20826 -0.20615,0 -0.41451,0.10761 -0.46302,0.23874 -0.0485,0.13113 -1.45759,1.28242 -3.13108,2.5585 -1.67349,1.27608 -3.10224,2.39447 -3.175,2.48564 -0.0728,0.0912 -0.84666,0.71269 -1.71979,1.38131 -0.87312,0.66861 -1.94468,1.52845 -2.38125,1.91048 -2.40231,2.10223 -6.32831,3.77306 -10.19938,4.34082 -2.52247,0.36995 -3.05698,0.36956 -5.55625,-0.003 -1.52092,-0.22682 -3.18193,-0.56527 -3.69125,-0.75241 -1.88058,-0.69097 -4.80045,-2.25652 -6.0203,-3.22771 -0.69069,-0.54989 -2.44636,-1.91371 -3.90157,-3.03083 -1.4552,-1.11713 -2.70537,-2.10092 -2.77813,-2.18643 -0.0728,-0.0855 -0.96572,-0.80494 -1.98437,-1.59835 -1.01864,-0.7934 -1.91162,-1.50526 -1.98438,-1.58233 -0.0728,-0.0771 -0.60853,-0.49025 -1.19062,-0.91829 -0.58208,-0.42804 -1.11787,-0.84913 -1.19063,-0.93534 -0.0728,-0.0862 -1.6801,-1.33315 -3.57187,-2.77089 -1.89177,-1.43774 -3.49912,-2.68998 -3.57188,-2.78278 -0.0728,-0.0928 -1.144315,-0.92904 -2.381245,-1.85828 -1.23693,-0.92923 -2.30849,-1.76646 -2.38125,-1.86087 -0.0728,-0.0944 -1.8587,-1.49809 -3.96875,-3.11919 -3.47536,-2.67004 -7.928746,-6.1049 -10.298596,-7.94319 -0.4982,-0.38646 -1.272102,-1.00873 -1.719792,-1.38286 -0.44768,-0.37414 -1.825932,-1.43904 -3.062862,-2.36626 -1.23693,-0.92723 -2.30849,-1.76145 -2.38125,-1.85415 -0.0728,-0.0927 -1.50151,-1.21266 -3.175,-2.488738 -1.67349,-1.27608 -3.082058,-2.427371 -3.130558,-2.558501 -0.0485,-0.13113 -0.247287,-0.238745 -0.441317,-0.238745 -0.19402,0 -0.39229,-0.09803 -0.4408,-0.218074 -0.0485,-0.12004 -1.457585,-1.263097 -3.131075,-2.539897 -1.67349,-1.2768 -3.082058,-2.428404 -3.130558,-2.559534 -0.0485,-0.13113 -0.187479,-0.238745 -0.308509,-0.238745 -0.12103,0 -0.497895,-0.234218 -0.837675,-0.520898 -1.28017,-1.08009 -6.552352,-5.203281 -9.503812,-7.432621 -1.68573,-1.27328 -3.233534,-2.480334 -3.439584,-2.682524 -0.20604,-0.20219 -1.565277,-1.282087 -3.020487,-2.399337 -1.45521,-1.11724 -4.253168,-3.283173 -6.217708,-4.813143 -5.28445,-4.11549 -10.35818,-8.055133 -13.49375,-10.477913 -1.52797,-1.180625 -3.241763,-2.523008 -3.808553,-2.983281 -2.63613,-2.140729 -4.289088,-3.34595 -4.591968,-3.348116 z"
       style="fill:#ffffff"
       id="path4" /><path
       d="m 28.151253,35.478455 -0.926041,0.576709 c -2.22069,1.383143 -3.175,3.089632 -3.175,5.676656 0,1.732095 0.0873,2.065214 0.818554,3.134175 0.45003,0.657849 1.709109,1.850636 2.798279,2.651001 1.08917,0.800364 2.179688,1.64023 2.423108,1.866036 0.24343,0.225806 1.990164,1.593954 3.881934,3.040642 1.89177,1.446689 3.618178,2.776544 3.836458,2.954858 1.60756,1.313224 3.843696,3.053604 4.866886,3.788399 0.67032,0.481393 1.218531,0.974172 1.218531,1.095024 0,0.120852 0.13594,0.219625 0.30179,0.219625 0.16586,0 0.433742,0.162647 0.595312,0.361218 0.16156,0.198571 1.781804,1.470297 3.600814,2.826184 1.81901,1.355889 3.366824,2.537726 3.439584,2.626196 0.0728,0.0885 1.50151,1.222727 3.175,2.520777 1.67349,1.29805 3.10224,2.429201 3.175,2.513541 0.0728,0.0843 1.680105,1.329533 3.571875,2.767273 1.89177,1.43774 3.499115,2.691507 3.571875,2.785877 0.0728,0.0944 1.571032,1.25364 3.329512,2.57607 1.75849,1.32242 3.365825,2.569734 3.571875,2.771924 0.20604,0.20219 1.565278,1.281246 3.020488,2.397786 6.36008,4.87987 10.577582,8.14681 11.089762,8.59069 0.3037,0.2632 1.563933,1.243015 2.800863,2.177645 1.23692,0.93464 2.30848,1.775303 2.38125,1.868103 0.0728,0.0928 1.680105,1.345046 3.571875,2.782776 1.89177,1.43774 3.499105,2.68789 3.571875,2.77812 0.0728,0.0902 1.680108,1.34198 3.571878,2.78175 1.89177,1.43978 3.56809,2.73999 3.72483,2.88923 0.15674,0.14924 1.45531,1.16426 2.88562,2.25567 1.43032,1.09141 2.7925,2.16297 3.0272,2.38125 0.23471,0.21828 1.9127,1.51614 3.72897,2.88406 1.81626,1.36791 3.43461,2.64785 3.59617,2.84428 0.16157,0.19643 0.41935,0.35708 0.57309,0.35708 0.15373,0 0.31943,0.0943 0.36793,0.20929 0.0485,0.11494 1.45707,1.26559 3.13056,2.55747 1.67349,1.29188 3.10224,2.41843 3.175,2.5032 0.27607,0.32164 2.81205,2.30794 3.57188,2.79776 1.40109,0.90319 4.74661,0.96715 6.2177,0.11886 0.3638,-0.20978 0.72099,-0.45372 0.79375,-0.54209 0.27123,-0.32941 3.38224,-2.83019 5.55625,-4.46639 1.23693,-0.93094 2.30849,-1.76858 2.38125,-1.86138 0.0728,-0.0928 1.68011,-1.34504 3.57188,-2.78278 1.89178,-1.43773 3.49911,-2.6879 3.57187,-2.77813 0.0728,-0.0902 1.6801,-1.34038 3.57188,-2.77812 1.89177,-1.43773 3.49911,-2.68811 3.57187,-2.77864 0.0728,-0.0905 1.50151,-1.22166 3.175,-2.51354 1.67349,-1.29188 3.08258,-2.44253 3.13108,-2.55747 0.0485,-0.11494 0.24677,-0.20929 0.4408,-0.20929 0.19402,0 0.39281,-0.10603 0.44132,-0.23564 0.0485,-0.1296 1.63565,-1.4038 3.52743,-2.83187 1.89177,-1.428073 3.5952,-2.749362 3.7853,-2.935742 0.19009,-0.18637 1.08306,-0.898599 1.98437,-1.582849 0.90131,-0.68425 2.00867,-1.548866 2.46084,-1.921846 1.27919,-1.05516 1.59893,-1.304368 5.26324,-4.098458 1.89177,-1.4425 3.49911,-2.69668 3.57187,-2.78691 0.0728,-0.0902 1.65484,-1.324842 3.51555,-2.743502 1.86072,-1.41866 3.64665,-2.804665 3.96875,-3.079915 0.32211,-0.27525 1.83565,-1.464953 3.36362,-2.644283 1.52797,-1.17933 4.14734,-3.207975 5.82083,-4.507735 1.67349,-1.29977 4.29288,-3.329683 5.82084,-4.511353 1.52797,-1.18168 2.81799,-2.257582 2.86649,-2.390552 0.0485,-0.13298 0.20554,-0.241845 0.34933,-0.241845 0.14379,0 0.45165,-0.18965 0.68368,-0.42168 0.23203,-0.23203 1.8557,-1.504474 3.60805,-2.827734 1.75236,-1.323263 3.36968,-2.558676 3.5941,-2.745053 1.27893,-1.062161 3.82285,-3.045829 4.87773,-3.803385 0.67032,-0.481392 1.21853,-0.974171 1.21853,-1.095024 0,-0.120852 0.16902,-0.219624 0.37518,-0.219624 0.20615,0 0.41451,-0.1071 0.46302,-0.238229 0.0485,-0.13113 1.45706,-1.283247 3.13055,-2.56005 1.67349,-1.276802 3.08258,-2.419344 3.13108,-2.53938 0.0485,-0.120036 0.25686,-0.218591 0.46302,-0.218591 0.20615,0 0.37465,-0.09423 0.37465,-0.209807 0,-0.115581 1.04149,-0.978783 2.31459,-1.918229 4.18246,-3.086338 5.14316,-4.222914 5.50509,-6.512781 0.3207,-2.028953 -1.21056,-4.948802 -3.26543,-6.226493 l -0.98237,-0.610815 H 133.19084 Z"
       style="fill:#ffffff"
       id="path3" /></g></svg>
